<svg width="231" height="17" viewBox="0 0 231 17" fill="none" xmlns="http://www.w3.org/2000/svg">
<path fill-rule="evenodd" clip-rule="evenodd" d="M63.9112 7.52884C44.1937 7.60284 23.9173 7.37484 3.8945 5.78183C1.38444 5.58183 -0.286185 4.77983 0.161378 3.99183C0.609972 3.20183 3.00763 2.72383 5.51769 2.92383C24.9217 4.46783 44.8393 4.66683 64.9548 4.57383C95.5149 4.43383 126.011 3.92183 156.447 3.25384C158.933 3.19884 161.425 3.14183 163.925 3.08383C178.62 2.74683 193.569 2.40384 208.688 2.54384C209.568 2.55284 210.55 2.55583 211.603 2.55883C215.594 2.57283 220.595 2.58884 224.829 2.88884C225.306 2.92284 225.792 2.96083 226.221 3.00483C226.427 3.02483 226.739 3.05983 227.079 3.11083L227.095 3.11283C227.267 3.13783 228.275 3.28483 229.078 3.61783C229.611 3.83783 230.276 4.23783 230.098 4.74183C229.931 5.21983 229.101 5.50783 228.616 5.63883C227.811 5.85683 226.932 5.92283 226.754 5.93583L226.736 5.93684C226.182 5.97984 225.62 5.99083 225.323 5.99584C223.982 6.01784 221.572 5.99383 219.066 5.96384L216.475 5.93084C211.715 5.87084 206.63 5.80583 203.966 5.85483C182.501 6.24883 161.031 6.95384 139.53 7.65983C132.517 7.88983 125.502 8.11983 118.482 8.33983C115.043 8.44683 111.579 8.54184 108.111 8.63384C117.496 8.69084 127.016 8.78684 136.458 9.02683C139.007 9.09084 141.056 9.80184 141.034 10.6128C141.013 11.4248 138.927 12.0298 136.378 11.9648C124.268 11.6578 111.965 11.5928 99.6914 11.5348C95.4406 11.5158 91.1114 11.5908 86.544 11.6688C84.1412 11.7098 81.6745 11.7528 79.117 11.7828C71.9384 11.8688 64.3536 11.8508 57.1039 11.3368C56.712 11.3088 56.1397 11.2608 55.5395 11.1708C55.1198 11.1068 53.6482 10.8738 52.8521 10.3158C51.8311 9.59984 52.7428 9.01684 53.3326 8.77084C53.873 8.54584 54.5113 8.41883 54.8032 8.36383C55.9242 8.15283 57.6123 8.00284 58.8044 7.90384C60.3204 7.77784 62.255 7.64184 63.9112 7.52884Z" fill="#0036FF"/>
</svg>
