<svg width="133" height="26" viewBox="0 0 133 26" fill="none" xmlns="http://www.w3.org/2000/svg">
<path d="M129.103 25.4752C120.615 25.1124 113.915 17.9209 113.915 9.17262V1.09973H114.868C116.648 1.09973 118.091 2.58597 118.091 4.41934V8.27473C118.091 15.5344 123.608 21.5249 130.648 21.91Lnan nanL130.648 21.91C131.967 21.9822 133 23.1044 133 24.4644V25.6417L129.103 25.4752Z" fill="black"/>
<path d="M8.28704 25.6417H0V1.18236H8.45422C10.8822 1.18236 12.9679 1.67203 14.7113 2.65136C16.4626 3.62272 17.808 5.02006 18.7473 6.84336C19.6867 8.66667 20.1564 10.8483 20.1564 13.3881C20.1564 15.936 19.6827 18.1256 18.7354 19.9568C17.796 21.7881 16.4388 23.1934 14.6635 24.1727C12.8963 25.152 10.7708 25.6417 8.28704 25.6417ZM4.43011 21.808H8.07211C9.77569 21.808 11.1967 21.4975 12.335 20.8764C13.4734 20.2474 14.3292 19.3119 14.9024 18.0698C15.4755 16.8198 15.7621 15.2592 15.7621 13.3881C15.7621 11.5171 15.4755 9.96448 14.9024 8.73036C14.3292 7.48829 13.4814 6.56071 12.3589 5.94764C11.2444 5.3266 9.85927 5.01608 8.20346 5.01608H4.43011V21.808Z" fill="black"/>
<path d="M29.8212 26C28.03 26 26.4777 25.6059 25.1642 24.8176C23.8507 24.0294 22.8317 22.9267 22.1073 21.5094C21.3908 20.0922 21.0326 18.4361 21.0326 16.5411C21.0326 14.6461 21.3908 12.9861 22.1073 11.5609C22.8317 10.1357 23.8507 9.02894 25.1642 8.2407C26.4777 7.45246 28.03 7.05834 29.8212 7.05834C31.6123 7.05834 33.1647 7.45246 34.4782 8.2407C35.7917 9.02894 36.8067 10.1357 37.5231 11.5609C38.2475 12.9861 38.6097 14.6461 38.6097 16.5411C38.6097 18.4361 38.2475 20.0922 37.5231 21.5094C36.8067 22.9267 35.7917 24.0294 34.4782 24.8176C33.1647 25.6059 31.6123 26 29.8212 26ZM29.8451 22.5365C30.8163 22.5365 31.6283 22.2698 32.281 21.7363C32.9338 21.1949 33.4194 20.4704 33.7378 19.5627C34.0642 18.655 34.2274 17.6439 34.2274 16.5292C34.2274 15.4065 34.0642 14.3914 33.7378 13.4837C33.4194 12.5681 32.9338 11.8395 32.281 11.2981C31.6283 10.7567 30.8163 10.486 29.8451 10.486C28.85 10.486 28.0221 10.7567 27.3613 11.2981C26.7086 11.8395 26.219 12.5681 25.8926 13.4837C25.5742 14.3914 25.415 15.4065 25.415 16.5292C25.415 17.6439 25.5742 18.655 25.8926 19.5627C26.219 20.4704 26.7086 21.1949 27.3613 21.7363C28.0221 22.2698 28.85 22.5365 29.8451 22.5365Z" fill="black"/>
<path d="M43.1847 25.6417L38.0023 7.2972H42.4085L45.6326 20.1957H45.7998L49.0955 7.2972H53.4539L56.7497 20.124H56.9288L60.1051 7.2972H64.5232L59.3289 25.6417H54.8272L51.3881 13.2448H51.1374L47.6984 25.6417H43.1847Z" fill="black"/>
<path d="M69.5102 14.893V25.6417H65.1875V7.2972H69.3191V10.4143H69.534C69.9559 9.38723 70.6286 8.57112 71.5521 7.96601C72.4835 7.36089 73.6338 7.05834 75.003 7.05834C76.2688 7.05834 77.3713 7.32905 78.3107 7.87046C79.258 8.41188 79.9904 9.19614 80.5078 10.2232C81.0332 11.2503 81.2919 12.4964 81.284 13.9614V25.6417H76.9613V14.6302C76.9613 13.4041 76.6429 12.4446 76.0061 11.752C75.3772 11.0593 74.5055 10.7129 73.391 10.7129C72.6347 10.7129 71.962 10.8801 71.3729 11.2145C70.7918 11.541 70.3341 12.0147 69.9997 12.6357C69.6733 13.2568 69.5102 14.0092 69.5102 14.893Z" fill="black"/>
<path d="M87.6471 14.893V25.6417H83.3244V1.18236H87.5516V10.4143H87.7665C88.1964 9.37927 88.8611 8.56316 89.7606 7.96601C90.6681 7.36089 91.8224 7.05834 93.2235 7.05834C94.4972 7.05834 95.6077 7.32506 96.5551 7.85852C97.5024 8.39198 98.2347 9.17225 98.7522 10.1994C99.2776 11.2265 99.5403 12.4805 99.5403 13.9614V25.6417H95.2177V14.6302C95.2177 13.3961 94.8992 12.4367 94.2624 11.752C93.6335 11.0593 92.7499 10.7129 91.6115 10.7129C90.8473 10.7129 90.1626 10.8801 89.5576 11.2145C88.9606 11.541 88.4909 12.0147 88.1486 12.6357C87.8143 13.2568 87.6471 14.0092 87.6471 14.893Z" fill="black"/>
<path d="M101.593 25.6417V7.2972H105.915V25.6417H101.593ZM103.766 4.69362C103.081 4.69362 102.492 4.4667 101.999 4.01286C101.505 3.55106 101.258 2.9977 101.258 2.35278C101.258 1.69989 101.505 1.14653 101.999 0.692695C102.492 0.230898 103.081 0 103.766 0C104.459 0 105.048 0.230898 105.533 0.692695C106.027 1.14653 106.274 1.69989 106.274 2.35278C106.274 2.9977 106.027 3.55106 105.533 4.01286C105.048 4.4667 104.459 4.69362 103.766 4.69362Z" fill="black"/>
<path d="M112.329 1.18236V25.6417H108.007V1.18236H112.329Z" fill="black"/>
</svg>
